<svg width="52" height="52" viewBox="0 0 52 52" fill="none" xmlns="http://www.w3.org/2000/svg">
<g clip-path="url(#clip0_9_3994)">
<path d="M39 4.33333C43.7797 4.33333 47.6667 8.22033 47.6667 13V39C47.6667 43.7797 43.7797 47.6667 39 47.6667H13C8.22033 47.6667 4.33333 43.7797 4.33333 39V13C4.33333 8.22033 8.22033 4.33333 13 4.33333H39ZM39 0H13C5.81967 0 0 5.81967 0 13V39C0 46.1803 5.81967 52 13 52H39C46.1803 52 52 46.1803 52 39V13C52 5.81967 46.1803 0 39 0Z" fill="#D4E1F3"/>
<path d="M26 39C24.804 39 23.8333 38.0315 23.8333 36.8333V15.1667C23.8333 13.9707 24.804 13 26 13C27.196 13 28.1666 13.9707 28.1666 15.1667V36.8333C28.1666 38.0315 27.196 39 26 39Z" fill="#D4E1F3"/>
<path d="M13 25.9997C13 24.8037 13.9685 23.833 15.1667 23.833H36.8333C38.0293 23.833 39 24.8037 39 25.9997C39 27.1957 38.0293 28.1663 36.8333 28.1663H15.1667C13.9685 28.1663 13 27.1957 13 25.9997Z" fill="#D4E1F3"/>
</g>
<defs>
<clipPath id="clip0_9_3994">
<rect width="52" height="52" fill="white"/>
</clipPath>
</defs>
</svg>
