<svg width="19" height="18" viewBox="0 0 19 18" fill="none" xmlns="http://www.w3.org/2000/svg">
<path fill-rule="evenodd" clip-rule="evenodd" d="M3 2C2.44772 2 2 2.44772 2 3V15C2 15.5523 2.44772 16 3 16H15C15.5523 16 16 15.5523 16 15V9C16 8.4477 16.4477 8 17 8C17.5523 8 18 8.4477 18 9V15C18 16.6569 16.6569 18 15 18H3C1.34315 18 0 16.6569 0 15V3C0 1.34315 1.34315 0 3 0H13C13.5523 0 14 0.44772 14 1C14 1.55228 13.5523 2 13 2H3ZM17.2929 1.29289C17.6834 0.90237 18.3166 0.90237 18.7071 1.29289C19.0976 1.68342 19.0976 2.31658 18.7071 2.70711L9.7071 11.7071C9.3166 12.0976 8.6834 12.0976 8.2929 11.7071L5.29289 8.7071C4.90237 8.3166 4.90237 7.6834 5.29289 7.2929C5.68342 6.90237 6.31658 6.90237 6.70711 7.2929L9 9.5858L17.2929 1.29289Z" fill="#437ECE"/>
</svg>
