<svg width="19" height="19" viewBox="0 0 19 19" fill="none" xmlns="http://www.w3.org/2000/svg">
<path d="M15.9816 0.125H2.3149C1.71094 0.125491 1.13185 0.372579 0.704786 0.812011C0.277721 1.25144 0.0375869 1.8473 0.0371094 2.46875V16.5312C0.0375869 17.1527 0.277721 17.7486 0.704786 18.188C1.13185 18.6274 1.71094 18.8745 2.3149 18.875H15.9816C16.5856 18.8745 17.1647 18.6274 17.5918 18.188C18.0188 17.7486 18.259 17.1527 18.2594 16.5312V2.46875C18.259 1.8473 18.0188 1.25144 17.5918 0.812011C17.1647 0.372579 16.5856 0.125491 15.9816 0.125ZM13.4799 12.8555C13.5507 12.9277 13.6069 13.0136 13.6454 13.1082C13.6838 13.2029 13.7037 13.3044 13.7039 13.407C13.7041 13.5095 13.6847 13.6111 13.6466 13.7059C13.6086 13.8008 13.5527 13.8869 13.4822 13.9594C13.4117 14.032 13.328 14.0895 13.2359 14.1286C13.1437 14.1678 13.045 14.1878 12.9453 14.1876C12.8456 14.1874 12.7469 14.1669 12.6549 14.1273C12.563 14.0877 12.4795 14.0299 12.4093 13.957L9.14827 10.6055L5.88724 13.957C5.74527 14.1031 5.55272 14.1852 5.35195 14.1852C5.15119 14.1852 4.95864 14.1031 4.81667 13.957C4.67471 13.811 4.59495 13.6128 4.59495 13.4062C4.59495 13.1997 4.67471 13.0015 4.81667 12.8555L8.07391 9.5L4.81667 6.14453C4.67471 5.99846 4.59495 5.80033 4.59495 5.59375C4.59495 5.38717 4.67471 5.18904 4.81667 5.04297C4.95864 4.89689 5.15119 4.81483 5.35195 4.81483C5.55272 4.81483 5.74527 4.89689 5.88724 5.04297L9.14827 8.39453L12.4093 5.04297C12.5513 4.89689 12.7438 4.81483 12.9446 4.81483C13.1454 4.81483 13.3379 4.89689 13.4799 5.04297C13.6218 5.18904 13.7016 5.38717 13.7016 5.59375C13.7016 5.80033 13.6218 5.99846 13.4799 6.14453L10.2226 9.5L13.4799 12.8555Z" fill="#FF5454" fill-opacity="0.2"/>
<path d="M13.4796 12.8551C13.5504 12.9273 13.6067 13.0132 13.6451 13.1078C13.6836 13.2025 13.7035 13.304 13.7037 13.4066C13.7039 13.5092 13.6844 13.6108 13.6464 13.7056C13.6083 13.8004 13.5525 13.8865 13.482 13.9591C13.4115 14.0316 13.3278 14.0891 13.2356 14.1282C13.1435 14.1674 13.0447 14.1874 12.945 14.1872C12.8454 14.187 12.7467 14.1665 12.6547 14.1269C12.5627 14.0874 12.4793 14.0295 12.4091 13.9567L9.14805 10.6051L5.88701 13.9567C5.74504 14.1027 5.5525 14.1848 5.35173 14.1848C5.15096 14.1848 4.95841 14.1027 4.81645 13.9567C4.67448 13.8106 4.59473 13.6125 4.59473 13.4059C4.59473 13.1993 4.67448 13.0012 4.81645 12.8551L8.07369 9.49963L4.81645 6.14416C4.67448 5.99808 4.59473 5.79996 4.59473 5.59338C4.59473 5.38679 4.67448 5.18867 4.81645 5.04259C4.95841 4.89652 5.15096 4.81445 5.35173 4.81445C5.5525 4.81445 5.74504 4.89652 5.88701 5.04259L9.14805 8.39416L12.4091 5.04259C12.551 4.89652 12.7436 4.81445 12.9444 4.81445C13.1451 4.81445 13.3377 4.89652 13.4796 5.04259C13.6216 5.18867 13.7014 5.38679 13.7014 5.59338C13.7014 5.79996 13.6216 5.99808 13.4796 6.14416L10.2224 9.49963L13.4796 12.8551Z" fill="#FF5454"/>
</svg>
