<svg width="19" height="15" viewBox="0 0 19 15" fill="none" xmlns="http://www.w3.org/2000/svg">
<path d="M17.2187 0.375H1.78126C0.799014 0.375 0 1.17401 0 2.15626V12.8438C0 13.826 0.799014 14.625 1.78126 14.625H17.2187C18.201 14.625 19 13.826 19 12.8438V2.15626C19 1.17401 18.201 0.375 17.2187 0.375ZM17.2187 1.56249C17.2994 1.56249 17.3762 1.57923 17.4463 1.60846L9.5 8.49559L1.55365 1.60846C1.62381 1.57927 1.70055 1.56249 1.78122 1.56249H17.2187ZM17.2187 13.4375H1.78126C1.45366 13.4375 1.1875 13.1714 1.1875 12.8437V2.86306L9.11092 9.73004C9.22285 9.82685 9.36142 9.875 9.5 9.875C9.63858 9.875 9.77715 9.82689 9.88908 9.73004L17.8125 2.86306V12.8438C17.8125 13.1714 17.5463 13.4375 17.2187 13.4375Z" fill="#27304E" fill-opacity="0.7"/>
</svg>
