<svg width="37" height="36" viewBox="0 0 37 36" fill="none" xmlns="http://www.w3.org/2000/svg">
<path d="M10.4374 35.9999H0V2.6123H23.6338L10.4374 35.9999Z" fill="#FF8F0B"/>
<path d="M26.1856 0H36.623V33.3754H12.9893L26.1856 0Z" fill="#437ECE"/>
<path d="M33.4366 15.736V15.7238C33.4366 15.3453 33.4 15.0035 33.3268 14.6861L33.0826 12.3545L31.9351 12.794L31.9595 12.8306C31.1905 12.3789 30.1284 12.1592 28.7734 12.1592C27.0643 12.1592 25.6116 12.5498 24.4153 13.3311L22.9504 17.03L21.1925 17.7136L21.5343 20.6068C21.6686 21.0585 21.8639 21.4613 22.1447 21.8275C22.3888 22.1694 22.7673 22.6088 23.28 23.1215L20.0206 25.6607L20.0816 25.7706H19.4712H19.337L19.3003 25.9415L18.4336 26.8326L18.751 30.2141L18.8364 30.1042C18.9463 30.6902 19.166 31.1907 19.4956 31.618C20.2769 32.6068 21.632 33.1073 23.5852 33.1073C25.5506 33.1073 27.1864 32.619 28.5048 31.6302C29.8232 30.6536 30.69 29.2741 31.105 27.5163C31.2393 26.9303 31.3125 26.3687 31.3125 25.856C31.3125 25.3921 31.2637 24.9649 31.1538 24.562L30.7754 21.5346L30.1284 22.853C29.75 22.3769 29.2617 21.8397 28.6635 21.2294L28.3827 20.9486L28.2851 20.8387C26.6493 19.1785 25.929 17.97 26.0999 17.2131C26.2098 16.7614 26.4173 16.3952 26.7347 16.1144C27.0521 15.8459 27.4061 15.6994 27.809 15.6994C28.0653 15.6994 28.2729 15.736 28.4438 15.8214L28.1386 16.1144L28.4804 19.0076H32.8385L33.2291 17.3352C33.3634 16.7492 33.4244 16.2243 33.4366 15.736ZM26.3441 26.5274C26.5028 26.9547 26.5394 27.382 26.4417 27.8092C26.3319 28.2975 26.0999 28.7004 25.7459 29.0056C25.3919 29.3108 24.989 29.4695 24.5251 29.4695C24.0246 29.4695 23.6828 29.2986 23.5241 28.9689C23.3532 28.6393 23.3532 28.1266 23.5119 27.4308L23.9026 25.7828L23.634 23.5C23.927 23.793 24.2444 24.1104 24.6106 24.4522C24.989 24.8062 25.2698 25.087 25.4651 25.2701C25.8802 25.6851 26.1732 26.1002 26.3441 26.5274Z" fill="#437ECE"/>
<path d="M20.7281 4.80957L19.0557 7.69055H16.1991L13.2937 16.2602C13.2327 16.4433 13.135 16.7485 13.0008 17.1514C12.7078 18.0059 12.4392 18.8116 12.1829 19.5929L11.3772 20.9968C11.5114 20.2399 11.6335 19.5318 11.7434 18.8849C11.9631 17.5909 12.1096 16.7241 12.1706 16.2969L13.3792 7.70275L13.0374 4.80957L12.1218 7.69055H8.3741L7.17776 23.4138L6.44531 25.7577L6.78712 28.6509L13.3182 28.6753L21.4728 7.98353L20.7281 4.80957Z" fill="#AB610A"/>
<path d="M28.3091 18.3597L28.0283 18.079L27.9306 17.9691C26.2948 16.3089 25.5746 15.1003 25.7455 14.3435C25.8554 13.8918 26.0629 13.5256 26.3803 13.2448C26.6977 12.9762 27.0517 12.8297 27.4546 12.8297C27.9551 12.8297 28.2847 12.9884 28.4434 13.2936C28.6021 13.5988 28.6021 14.0749 28.4556 14.7341L28.126 16.138H32.4841L32.8747 14.4655C33.2775 12.7321 33.1066 11.4381 32.362 10.5713C31.6173 9.70461 30.2989 9.27734 28.4189 9.27734C26.7099 9.27734 25.2572 9.66798 24.0609 10.4493L21.1677 17.7005C21.302 18.1522 21.4973 18.5551 21.7781 18.9213C22.2053 19.5195 23.0354 20.3862 24.2562 21.5459C24.6346 21.8999 24.9154 22.1807 25.1107 22.3638C25.538 22.7911 25.8432 23.2061 26.0019 23.6334C26.1606 24.0607 26.1972 24.4879 26.0873 24.9152C25.9774 25.4035 25.7455 25.8063 25.3915 26.1115C25.0375 26.4167 24.6346 26.5754 24.1707 26.5754C23.6702 26.5754 23.3284 26.4045 23.1697 26.0749C22.9988 25.7453 22.9988 25.2326 23.1575 24.5368L23.5481 22.8887H19.1168H18.9825L18.6285 24.4147C18.189 26.3068 18.3599 27.7473 19.129 28.7361C19.9103 29.725 21.2653 30.2255 23.2185 30.2255C25.184 30.2255 26.8198 29.7372 28.1382 28.7484C29.4566 27.7717 30.3233 26.3923 30.7384 24.6344C30.8727 24.0485 30.9459 23.4869 30.9459 22.9742C30.9459 22.4615 30.8849 21.9854 30.7506 21.5459C30.5675 20.8989 29.7496 19.8369 28.3091 18.3597Z" fill="white"/>
<path d="M12.4392 25.7577L14.722 19.9957L16.7607 14.8442L17.7251 12.4027L20.7159 4.80957H19.6539H15.8451L12.9397 13.3793C12.8787 13.5624 12.781 13.8676 12.6467 14.2704C11.841 16.6631 11.1574 18.7384 10.5959 20.4962C10.9011 18.7872 11.1696 17.2857 11.3772 15.9917C11.5969 14.6977 11.7434 13.8309 11.8044 13.4037L13.013 4.80957H8.03229L6.44531 25.7577H11.426H12.4392Z" fill="white"/>
</svg>
